<svg width="118" height="45" viewBox="0 0 118 45" fill="none" xmlns="http://www.w3.org/2000/svg">
<g filter="url(#filter0_d)">
<path d="M10.148 23.88C10.1253 23.4267 10.08 22.4747 10.012 21.024C9.944 19.5733 9.876 18.474 9.808 17.726C9.76267 16.9553 9.638 15.9127 9.434 14.598C9.25267 13.2833 9.01467 12.2293 8.72 11.436C7.99467 9.35067 6.97467 7.85467 5.66 6.948C7.428 5.88267 8.856 5.35 9.944 5.35C11.0547 5.35 11.9727 5.53133 12.698 5.894C13.4233 6.25667 14.0127 6.69867 14.466 7.22C14.942 7.71867 15.3613 8.42133 15.724 9.328C16.0867 10.2347 16.3587 11.062 16.54 11.81C16.7213 12.558 16.8687 13.5213 16.982 14.7C17.118 15.8787 17.1973 16.8307 17.22 17.556C17.2653 18.2813 17.2993 19.2447 17.322 20.446C17.3673 21.6247 17.4013 22.4407 17.424 22.894H17.9C18.784 20.786 19.5887 18.372 20.314 15.652C21.062 12.932 21.436 10.7673 21.436 9.158C21.436 8.36467 21.266 7.628 20.926 6.948C22.626 5.88267 24.1333 5.35 25.448 5.35C27.9413 5.35 29.188 6.66467 29.188 9.294C29.188 10.6313 28.678 12.8753 27.658 16.026C26.638 19.1767 25.4367 22.2253 24.054 25.172C22.2633 29.0027 20.416 31.768 18.512 33.468C16.6307 35.168 14.2053 36.018 11.236 36.018C9.92133 36.018 8.73133 35.7573 7.666 35.236C6.374 34.624 5.728 33.5927 5.728 32.142C5.728 30.6913 6.28333 29.1953 7.394 27.654C7.89267 28.3793 8.56133 28.946 9.4 29.354C10.2387 29.7393 11.1567 29.932 12.154 29.932C13.174 29.932 14.126 29.66 15.01 29.116C15.9167 28.5493 16.5627 27.7447 16.948 26.702C15.7467 26.9967 14.6473 27.144 13.65 27.144C11.4967 27.144 10.3293 26.056 10.148 23.88ZM42.6977 25.818L42.3577 25.648C41.7457 27.28 40.8617 28.5607 39.7057 29.49C38.5724 30.3967 37.303 30.85 35.8977 30.85C33.971 30.85 32.4297 30.1247 31.2737 28.674C30.1177 27.2233 29.5397 25.2853 29.5397 22.86C29.5397 19.0973 30.7977 15.9467 33.3137 13.408C35.8524 10.8693 39.003 9.6 42.7657 9.6C43.7404 9.6 44.6357 9.69067 45.4517 9.872C45.5877 10.5067 45.667 11.062 45.6897 11.538C46.823 10.8127 47.9904 10.45 49.1917 10.45C50.8464 10.45 51.6737 11.3453 51.6737 13.136C51.6737 13.7707 51.311 15.686 50.5857 18.882C49.883 22.078 49.5317 24.4467 49.5317 25.988C49.5317 27.5293 49.883 28.5947 50.5857 29.184C49.3164 30.2947 47.9904 30.85 46.6077 30.85C45.2477 30.85 44.2504 30.442 43.6157 29.626C43.0037 28.81 42.6977 27.5407 42.6977 25.818ZM35.9317 21.194C35.9317 22.3047 36.1584 23.166 36.6117 23.778C37.0877 24.3673 37.7564 24.662 38.6177 24.662C39.479 24.662 40.329 24.3447 41.1677 23.71C42.0064 23.0753 42.709 22.2027 43.2757 21.092C43.4797 18.8027 43.9217 16.094 44.6017 12.966C42.3124 12.966 40.295 13.7933 38.5497 15.448C36.8044 17.1027 35.9317 19.018 35.9317 21.194ZM55.4588 23.54C55.4588 21.636 56.1955 16.74 57.6688 8.852L55.7648 6.132C57.1702 5.29333 58.3488 4.67 59.3008 4.262C60.2755 3.854 61.2388 3.65 62.1908 3.65C63.1655 3.65 63.8795 3.84267 64.3328 4.228C64.7862 4.61333 65.0128 5.22533 65.0128 6.064C65.0128 7.51467 64.5708 10.3593 63.6868 14.598L64.0268 14.768C65.6588 11.5267 68.0388 9.906 71.1668 9.906C72.9348 9.906 74.3175 10.6653 75.3148 12.184C76.3122 13.68 76.8108 15.5047 76.8108 17.658C76.8108 19.7887 76.3802 21.7153 75.5188 23.438C74.6802 25.138 73.5808 26.5207 72.2208 27.586C70.8835 28.6287 69.4215 29.4333 67.8348 30C66.2482 30.5667 64.6728 30.85 63.1088 30.85C60.5475 30.85 58.6322 30.2607 57.3628 29.082C56.0935 27.9033 55.4588 26.056 55.4588 23.54ZM62.1908 26.906C64.7068 26.906 66.7468 26.0447 68.3108 24.322C69.8975 22.5993 70.6908 20.6727 70.6908 18.542C70.6908 17.5673 70.4188 16.6833 69.8748 15.89C69.3535 15.0967 68.6622 14.7 67.8008 14.7C66.9395 14.7 66.1348 15.0513 65.3868 15.754C64.6615 16.4567 64.0948 17.2953 63.6868 18.27C63.3015 19.2447 62.9842 20.344 62.7348 21.568C62.3722 23.4947 62.1908 25.274 62.1908 26.906ZM91.2016 4.228C91.2016 5.08933 90.7483 5.83733 89.8416 6.472C88.9349 7.084 87.9036 7.39 86.7476 7.39C85.5916 7.39 84.6736 7.16333 83.9936 6.71C83.3363 6.25666 83.0076 5.64467 83.0076 4.874C83.0076 3.83133 83.4949 3.01533 84.4696 2.426C85.4443 1.83667 86.4756 1.542 87.5636 1.542C88.6516 1.542 89.5243 1.76867 90.1816 2.222C90.8616 2.67533 91.2016 3.344 91.2016 4.228ZM84.5716 30.85C83.1663 30.85 82.1463 30.4987 81.5116 29.796C80.8769 29.0933 80.5596 28.028 80.5596 26.6C80.5596 25.1493 81.2849 21.2847 82.7356 15.006L80.8316 12.15C83.6649 10.45 85.8976 9.6 87.5296 9.6C88.4589 9.6 89.1163 9.804 89.5016 10.212C89.8869 10.5973 90.0796 11.232 90.0796 12.116C90.0796 12.456 89.6603 14.4507 88.8216 18.1C87.9829 21.7493 87.5636 24.356 87.5636 25.92C87.5636 27.484 87.9149 28.572 88.6176 29.184C87.3483 30.2947 85.9996 30.85 84.5716 30.85ZM102.785 30.85C99.6799 30.85 97.2773 30.0453 95.5773 28.436C93.8999 26.8267 93.0613 24.6507 93.0613 21.908C93.0613 18.2587 94.3079 15.3007 96.8013 13.034C99.3173 10.7447 102.468 9.6 106.253 9.6C108.361 9.6 109.959 10.076 111.047 11.028C112.135 11.9573 112.679 13.1927 112.679 14.734C112.679 16.842 111.648 18.5987 109.585 20.004C107.545 21.3867 104.383 22.0893 100.099 22.112C100.167 23.5627 100.496 24.7073 101.085 25.546C101.675 26.362 102.411 26.77 103.295 26.77C104.179 26.77 104.939 26.4753 105.573 25.886C106.231 25.2967 106.559 24.3333 106.559 22.996C109.869 22.996 111.523 23.778 111.523 25.342C111.523 26.6793 110.707 27.9373 109.075 29.116C107.443 30.272 105.347 30.85 102.785 30.85ZM105.675 13.578C104.519 13.578 103.454 14.156 102.479 15.312C101.527 16.468 100.836 17.828 100.405 19.392C102.672 19.2107 104.372 18.7007 105.505 17.862C106.661 17.0007 107.239 16.094 107.239 15.142C107.239 14.6887 107.092 14.3147 106.797 14.02C106.525 13.7253 106.151 13.578 105.675 13.578Z" fill="url(#paint0_linear)"/>
<path d="M10.148 23.88L9.44887 23.915L9.44945 23.9266L9.45042 23.9381L10.148 23.88ZM10.012 21.024L10.7112 20.9912L10.7112 20.9912L10.012 21.024ZM9.808 17.726L9.10921 17.7671L9.10986 17.7783L9.11087 17.7894L9.808 17.726ZM9.434 14.598L8.74047 14.6937L8.74228 14.7053L9.434 14.598ZM8.72 11.436L8.05885 11.666L8.06126 11.6729L8.0638 11.6797L8.72 11.436ZM5.66 6.948L5.29872 6.34843L4.36952 6.90834L5.26259 7.52425L5.66 6.948ZM12.698 5.894L13.0111 5.2679L13.011 5.2679L12.698 5.894ZM14.466 7.22L13.9378 7.67932L13.9484 7.69158L13.9597 7.70333L14.466 7.22ZM15.724 9.328L16.3739 9.06803L16.3739 9.06802L15.724 9.328ZM16.54 11.81L15.8597 11.9749L15.8597 11.9749L16.54 11.81ZM16.982 14.7L16.2851 14.767L16.2866 14.7802L16.982 14.7ZM17.22 17.556L16.5203 17.5779L16.5207 17.5888L16.5214 17.5997L17.22 17.556ZM17.322 20.446L16.622 20.4592L16.6225 20.4729L17.322 20.446ZM17.424 22.894L16.7249 22.929L16.7581 23.594H17.424V22.894ZM17.9 22.894V23.594H18.3655L18.5455 23.1647L17.9 22.894ZM20.314 15.652L19.639 15.4664L19.6376 15.4716L20.314 15.652ZM20.926 6.948L20.5543 6.35484L20.0156 6.69243L20.2999 7.26105L20.926 6.948ZM27.658 16.026L26.992 15.8104L27.658 16.026ZM24.054 25.172L23.4203 24.8746L23.4199 24.8756L24.054 25.172ZM18.512 33.468L18.0458 32.9458L18.0427 32.9486L18.512 33.468ZM7.666 35.236L7.97371 34.6072L7.96566 34.6034L7.666 35.236ZM7.394 27.654L7.97083 27.2574L7.40745 26.438L6.82608 27.2448L7.394 27.654ZM9.4 29.354L9.09377 29.9835L9.10073 29.9868L9.10775 29.9901L9.4 29.354ZM15.01 29.116L15.3769 29.7122L15.381 29.7096L15.01 29.116ZM16.948 26.702L17.6046 26.9447L18.0616 25.7081L16.7812 26.0222L16.948 26.702ZM10.8471 23.845C10.8245 23.393 10.7792 22.4421 10.7112 20.9912L9.31277 21.0568C9.38076 22.5072 9.42614 23.4603 9.44887 23.915L10.8471 23.845ZM10.7112 20.9912C10.6431 19.5379 10.5745 18.4263 10.5051 17.6626L9.11087 17.7894C9.17745 18.5217 9.24489 19.6088 9.31277 21.0568L10.7112 20.9912ZM10.5068 17.6849C10.4596 16.8818 10.3311 15.8141 10.1257 14.4907L8.74228 14.7053C8.94493 16.0113 9.06578 17.0288 9.10921 17.7671L10.5068 17.6849ZM10.1274 14.5024C9.94258 13.1622 9.6957 12.0525 9.3762 11.1923L8.0638 11.6797C8.33364 12.4062 8.56275 13.4045 8.74057 14.6936L10.1274 14.5024ZM9.38115 11.206C8.62521 9.03273 7.53356 7.38978 6.05741 6.37175L5.26259 7.52425C6.41578 8.31955 7.36412 9.6686 8.05885 11.666L9.38115 11.206ZM6.02128 7.54756C7.76239 6.49843 9.05357 6.05 9.944 6.05V4.65C8.65843 4.65 7.09361 5.2669 5.29872 6.34843L6.02128 7.54756ZM9.944 6.05C10.984 6.05 11.7859 6.22058 12.385 6.5201L13.011 5.2679C12.1594 4.84208 11.1253 4.65 9.944 4.65V6.05ZM12.385 6.5201C13.0424 6.8488 13.5541 7.23805 13.9378 7.67932L14.9942 6.76067C14.4713 6.15928 13.8043 5.66453 13.0111 5.2679L12.385 6.5201ZM13.9597 7.70333C14.354 8.11648 14.7318 8.73234 15.0741 9.58797L16.3739 9.06802C15.9909 8.11033 15.53 7.32085 14.9723 6.73667L13.9597 7.70333ZM15.0741 9.58797C15.4275 10.4715 15.688 11.2665 15.8597 11.9749L17.2203 11.6451C17.0294 10.8575 16.7459 9.99783 16.3739 9.06803L15.0741 9.58797ZM15.8597 11.9749C16.0303 12.6785 16.1736 13.6058 16.2852 14.767L17.6788 14.633C17.5638 13.4369 17.4124 12.4375 17.2203 11.6451L15.8597 11.9749ZM16.2866 14.7802C16.4216 15.95 16.4985 16.8803 16.5203 17.5779L17.9197 17.5341C17.8961 16.781 17.8144 15.8073 17.6774 14.6198L16.2866 14.7802ZM16.5214 17.5997C16.5658 18.3105 16.5995 19.2624 16.6221 20.4592L18.0219 20.4328C17.9991 19.2269 17.9649 18.2522 17.9186 17.5123L16.5214 17.5997ZM16.6225 20.4729C16.6678 21.6513 16.702 22.4711 16.7249 22.929L18.1231 22.859C18.1007 22.4102 18.0668 21.598 18.0215 20.4191L16.6225 20.4729ZM17.424 23.594H17.9V22.194H17.424V23.594ZM18.5455 23.1647C19.4443 21.0215 20.2586 18.5764 20.9904 15.8324L19.6376 15.4716C18.9187 18.1676 18.1237 20.5505 17.2545 22.6233L18.5455 23.1647ZM20.9889 15.8376C21.7431 13.0952 22.136 10.86 22.136 9.158H20.736C20.736 10.6746 20.3809 12.7688 19.6391 15.4664L20.9889 15.8376ZM22.136 9.158C22.136 8.26086 21.9428 7.41641 21.5521 6.63495L20.2999 7.26105C20.5892 7.83959 20.736 8.46847 20.736 9.158H22.136ZM21.2977 7.54115C22.9406 6.51162 24.3168 6.05 25.448 6.05V4.65C23.9499 4.65 22.3114 5.25371 20.5543 6.35484L21.2977 7.54115ZM25.448 6.05C26.577 6.05 27.2976 6.34581 27.7451 6.81766C28.1991 7.29648 28.488 8.07823 28.488 9.294H29.888C29.888 7.88043 29.5536 6.69019 28.7609 5.85434C27.9617 5.01152 26.8123 4.65 25.448 4.65V6.05ZM28.488 9.294C28.488 10.5083 28.0131 12.6565 26.992 15.8104L28.324 16.2416C29.3429 13.0942 29.888 10.7543 29.888 9.294H28.488ZM26.992 15.8104C25.9809 18.9337 24.7903 21.955 23.4203 24.8746L24.6877 25.4694C26.083 22.4957 27.2951 19.4197 28.324 16.2416L26.992 15.8104ZM23.4199 24.8756C21.6464 28.6695 19.8476 31.3371 18.0458 32.9458L18.9782 33.9902C20.9844 32.1989 22.8803 29.3358 24.6881 25.4684L23.4199 24.8756ZM18.0427 32.9486C16.3116 34.5128 14.0634 35.318 11.236 35.318V36.718C14.3472 36.718 16.9497 35.8232 18.9813 33.9874L18.0427 32.9486ZM11.236 35.318C10.0163 35.318 8.93324 35.0768 7.97369 34.6072L7.35831 35.8648C8.52943 36.4378 9.82638 36.718 11.236 36.718V35.318ZM7.96566 34.6034C7.41896 34.3444 7.04616 34.0158 6.80573 33.6319C6.5649 33.2474 6.428 32.7614 6.428 32.142H5.028C5.028 32.9733 5.2141 33.7282 5.61927 34.3751C6.02484 35.0226 6.62104 35.5156 7.36634 35.8686L7.96566 34.6034ZM6.428 32.142C6.428 30.8778 6.91068 29.5221 7.96192 28.0632L6.82608 27.2448C5.65599 28.8686 5.028 30.5049 5.028 32.142H6.428ZM6.81717 28.0506C7.3885 28.8816 8.15301 29.5258 9.09377 29.9835L9.70623 28.7245C8.96966 28.3662 8.39683 27.8771 7.97083 27.2574L6.81717 28.0506ZM9.10775 29.9901C10.0453 30.4208 11.064 30.632 12.154 30.632V29.232C11.2493 29.232 10.432 29.0578 9.69225 28.7179L9.10775 29.9901ZM12.154 30.632C13.3059 30.632 14.3846 30.3228 15.3769 29.7122L14.6431 28.5198C13.8674 28.9972 13.0421 29.232 12.154 29.232V30.632ZM15.381 29.7096C16.4246 29.0574 17.1678 28.1265 17.6046 26.9447L16.2914 26.4593C15.9575 27.3628 15.4087 28.0413 14.639 28.5224L15.381 29.7096ZM16.7812 26.0222C15.622 26.3065 14.5796 26.444 13.65 26.444V27.844C14.7151 27.844 15.8713 27.6868 17.1148 27.3818L16.7812 26.0222ZM13.65 26.444C12.6875 26.444 12.0511 26.2021 11.6368 25.8159C11.2209 25.4283 10.9272 24.8009 10.8456 23.8219L9.45042 23.9381C9.55017 25.1351 9.93075 26.1397 10.6822 26.8401C11.4352 27.5419 12.4592 27.844 13.65 27.844V26.444ZM42.6977 25.818H43.3977V25.3854L43.0107 25.1919L42.6977 25.818ZM42.3577 25.648L42.6707 25.0219L41.9753 24.6742L41.7023 25.4022L42.3577 25.648ZM39.7057 29.49L40.143 30.0366L40.1443 30.0356L39.7057 29.49ZM31.2737 28.674L30.7262 29.1102L31.2737 28.674ZM33.3137 13.408L32.8187 12.913L32.8165 12.9152L33.3137 13.408ZM45.4517 9.872L46.1361 9.72533L46.042 9.28611L45.6035 9.18867L45.4517 9.872ZM45.6897 11.538L44.9905 11.5713L45.048 12.7797L46.067 12.1276L45.6897 11.538ZM50.5857 18.882L49.903 18.7271L49.902 18.7317L50.5857 18.882ZM50.5857 29.184L51.0466 29.7108L51.6616 29.1727L51.0355 28.6477L50.5857 29.184ZM43.6157 29.626L43.0556 30.0461L43.0631 30.0558L43.6157 29.626ZM36.6117 23.778L36.0492 24.1947L36.0579 24.2064L36.0671 24.2178L36.6117 23.778ZM41.1677 23.71L41.5901 24.2682L41.5901 24.2682L41.1677 23.71ZM43.2757 21.092L43.8992 21.4101L43.9609 21.2893L43.9729 21.1541L43.2757 21.092ZM44.6017 12.966L45.2857 13.1147L45.4702 12.266H44.6017V12.966ZM38.5497 15.448L38.0681 14.94L38.0681 14.94L38.5497 15.448ZM43.0107 25.1919L42.6707 25.0219L42.0446 26.2741L42.3846 26.4441L43.0107 25.1919ZM41.7023 25.4022C41.1265 26.9374 40.3093 28.1066 39.2671 28.9444L40.1443 30.0356C41.4141 29.0147 42.3648 27.6226 43.0131 25.8938L41.7023 25.4022ZM39.2684 28.9434C38.2548 29.7543 37.1385 30.15 35.8977 30.15V31.55C37.4675 31.55 38.8899 31.039 40.143 30.0366L39.2684 28.9434ZM35.8977 30.15C34.1746 30.15 32.8385 29.5144 31.8211 28.2378L30.7262 29.1102C32.0209 30.7349 33.7675 31.55 35.8977 31.55V30.15ZM31.8211 28.2378C30.7907 26.9446 30.2397 25.1759 30.2397 22.86H28.8397C28.8397 25.3947 29.4447 27.502 30.7262 29.1102L31.8211 28.2378ZM30.2397 22.86C30.2397 19.2711 31.4322 16.3008 33.8109 13.9007L32.8165 12.9152C30.1632 15.5925 28.8397 18.9236 28.8397 22.86H30.2397ZM33.8087 13.903C36.2092 11.5024 39.1787 10.3 42.7657 10.3V8.9C38.8273 8.9 35.4955 10.2362 32.8187 12.913L33.8087 13.903ZM42.7657 10.3C43.6975 10.3 44.5411 10.3867 45.2998 10.5553L45.6035 9.18867C44.7303 8.99461 43.7832 8.9 42.7657 8.9V10.3ZM44.7672 10.0187C44.8979 10.6284 44.9701 11.1443 44.9905 11.5713L46.3889 11.5047C46.3639 10.9797 46.2775 10.3849 46.1361 9.72533L44.7672 10.0187ZM46.067 12.1276C47.1017 11.4654 48.1398 11.15 49.1917 11.15V9.75C47.841 9.75 46.5444 10.1599 45.3124 10.9484L46.067 12.1276ZM49.1917 11.15C49.8963 11.15 50.3002 11.3381 50.5391 11.5966C50.7876 11.8655 50.9737 12.3354 50.9737 13.136H52.3737C52.3737 12.1459 52.1461 11.2728 51.5673 10.6464C50.9788 10.0096 50.1417 9.75 49.1917 9.75V11.15ZM50.9737 13.136C50.9737 13.3763 50.8975 13.9484 50.7139 14.9183C50.5348 15.864 50.2649 17.1326 49.903 18.7271L51.2683 19.0369C51.6318 17.4354 51.9059 16.1483 52.0895 15.1787C52.2685 14.2332 52.3737 13.5304 52.3737 13.136H50.9737ZM49.902 18.7317C49.1978 21.9348 48.8317 24.3661 48.8317 25.988H50.2317C50.2317 24.5273 50.5683 22.2212 51.2694 19.0323L49.902 18.7317ZM48.8317 25.988C48.8317 27.5998 49.1935 28.93 50.1359 29.7203L51.0355 28.6477C50.5725 28.2593 50.2317 27.4588 50.2317 25.988H48.8317ZM50.1247 28.6572C48.9537 29.6818 47.7856 30.15 46.6077 30.15V31.55C48.1952 31.55 49.679 30.9075 51.0466 29.7108L50.1247 28.6572ZM46.6077 30.15C45.3899 30.15 44.6307 29.7909 44.1682 29.1962L43.0631 30.0558C43.87 31.0931 45.1055 31.55 46.6077 31.55V30.15ZM44.1757 29.206C43.6984 28.5696 43.3977 27.4836 43.3977 25.818H41.9977C41.9977 27.5977 42.309 29.0504 43.0557 30.046L44.1757 29.206ZM35.2317 21.194C35.2317 22.3887 35.474 23.4181 36.0492 24.1947L37.1742 23.3613C36.8427 22.9139 36.6317 22.2206 36.6317 21.194H35.2317ZM36.0671 24.2178C36.6953 24.9955 37.5775 25.362 38.6177 25.362V23.962C37.9352 23.962 37.4801 23.7391 37.1562 23.3382L36.0671 24.2178ZM38.6177 25.362C39.6628 25.362 40.6574 24.974 41.5901 24.2682L40.7453 23.1518C40.0007 23.7153 39.2953 23.962 38.6177 23.962V25.362ZM41.5901 24.2682C42.5273 23.5589 43.2933 22.5977 43.8992 21.4101L42.6522 20.7739C42.1247 21.8077 41.4854 22.5917 40.7453 23.1518L41.5901 24.2682ZM43.9729 21.1541C44.1735 18.9027 44.6097 16.2243 45.2857 13.1147L43.9177 12.8173C43.2337 15.9637 42.7858 18.7026 42.5785 21.0299L43.9729 21.1541ZM44.6017 12.266C42.1234 12.266 39.9362 13.1689 38.0681 14.94L39.0313 15.956C40.6538 14.4177 42.5013 13.666 44.6017 13.666V12.266ZM38.0681 14.94C36.1996 16.7115 35.2317 18.8046 35.2317 21.194H36.6317C36.6317 19.2314 37.4091 17.4939 39.0313 15.956L38.0681 14.94ZM57.6688 8.852L58.3569 8.98052L58.4109 8.69147L58.2423 8.45057L57.6688 8.852ZM55.7648 6.132L55.4061 5.5309L54.7597 5.91669L55.1914 6.53342L55.7648 6.132ZM59.3008 4.262L59.0305 3.61627L59.0251 3.6186L59.3008 4.262ZM64.3328 4.228L63.8795 4.76136L63.8795 4.76136L64.3328 4.228ZM63.6868 14.598L63.0016 14.4551L62.8915 14.983L63.3738 15.2241L63.6868 14.598ZM64.0268 14.768L63.7138 15.3941L64.3381 15.7063L64.6521 15.0828L64.0268 14.768ZM75.3148 12.184L74.7297 12.5683L74.7324 12.5723L75.3148 12.184ZM75.5188 23.438L74.8927 23.1249L74.8911 23.1283L75.5188 23.438ZM72.2208 27.586L72.6513 28.138L72.6525 28.1371L72.2208 27.586ZM57.3628 29.082L57.8392 28.569L57.8392 28.569L57.3628 29.082ZM62.1908 26.906H61.4908V27.606H62.1908V26.906ZM68.3108 24.322L67.796 23.8478L67.7926 23.8515L68.3108 24.322ZM69.8748 15.89L69.2897 16.2745L69.2975 16.2859L69.8748 15.89ZM65.3868 15.754L64.9075 15.2437L64.8998 15.2512L65.3868 15.754ZM63.6868 18.27L63.041 17.9996L63.0359 18.0126L63.6868 18.27ZM62.7348 21.568L62.0489 21.4283L62.0469 21.4385L62.7348 21.568ZM56.1588 23.54C56.1588 21.7161 56.8787 16.8948 58.3569 8.98052L56.9807 8.72347C55.5123 16.5852 54.7588 21.5559 54.7588 23.54H56.1588ZM58.2423 8.45057L56.3383 5.73058L55.1914 6.53342L57.0954 9.25342L58.2423 8.45057ZM56.1236 6.7331C57.5156 5.90237 58.6646 5.29626 59.5766 4.9054L59.0251 3.6186C58.0331 4.04374 56.8248 4.6843 55.4061 5.5309L56.1236 6.7331ZM59.5711 4.90771C60.4696 4.5316 61.3414 4.35 62.1908 4.35V2.95C61.1363 2.95 60.0814 3.1764 59.0305 3.61629L59.5711 4.90771ZM62.1908 4.35C63.0981 4.35 63.6117 4.53375 63.8795 4.76136L64.7862 3.69464C64.1473 3.15158 63.2329 2.95 62.1908 2.95V4.35ZM63.8795 4.76136C64.1202 4.96593 64.3128 5.34327 64.3128 6.064H65.7128C65.7128 5.10739 65.4522 4.26073 64.7862 3.69464L63.8795 4.76136ZM64.3128 6.064C64.3128 7.43048 63.8881 10.2046 63.0016 14.4551L64.3721 14.7409C65.2536 10.5141 65.7128 7.59885 65.7128 6.064H64.3128ZM63.3738 15.2241L63.7138 15.3941L64.3399 14.1419L63.9999 13.9719L63.3738 15.2241ZM64.6521 15.0828C65.4283 13.5411 66.3604 12.4283 67.4298 11.7001C68.4936 10.9757 69.7307 10.606 71.1668 10.606V9.206C69.475 9.206 67.9581 9.64661 66.6419 10.5429C65.3313 11.4354 64.2574 12.7535 63.4016 14.4532L64.6521 15.0828ZM71.1668 10.606C72.6913 10.606 73.8575 11.2401 74.7297 12.5682L75.9 11.7997C74.7775 10.0906 73.1784 9.206 71.1668 9.206V10.606ZM74.7324 12.5723C75.639 13.9322 76.1108 15.6151 76.1108 17.658H77.5108C77.5108 15.3942 76.9853 13.4278 75.8973 11.7957L74.7324 12.5723ZM76.1108 17.658C76.1108 19.6917 75.7005 21.5094 74.8927 23.125L76.1449 23.751C77.0599 21.9212 77.5108 19.8856 77.5108 17.658H76.1108ZM74.8911 23.1283C74.0943 24.7434 73.0588 26.0404 71.7892 27.0349L72.6525 28.1371C74.1029 27.0009 75.2661 25.5326 76.1466 23.7477L74.8911 23.1283ZM71.7904 27.034C70.5116 28.031 69.1153 28.7994 67.5994 29.3408L68.0703 30.6592C69.7277 30.0673 71.2554 29.2263 72.6513 28.138L71.7904 27.034ZM67.5994 29.3408C66.0825 29.8826 64.5866 30.15 63.1088 30.15V31.55C64.7591 31.55 66.4139 31.2508 68.0703 30.6592L67.5994 29.3408ZM63.1088 30.15C60.6411 30.15 58.9288 29.5809 57.8392 28.569L56.8865 29.595C58.3355 30.9405 60.454 31.55 63.1088 31.55V30.15ZM57.8392 28.569C56.7668 27.5733 56.1588 25.9505 56.1588 23.54H54.7588C54.7588 26.1615 55.4202 28.2334 56.8865 29.595L57.8392 28.569ZM62.1908 27.606C64.8862 27.606 67.1208 26.6742 68.8291 24.7925L67.7926 23.8515C66.3729 25.4152 64.5275 26.206 62.1908 26.206V27.606ZM68.8257 24.7962C70.5186 22.9582 71.3908 20.8664 71.3908 18.542H69.9908C69.9908 20.4789 69.2764 22.2404 67.796 23.8478L68.8257 24.7962ZM71.3908 18.542C71.3908 17.428 71.0772 16.4056 70.4522 15.4941L69.2975 16.2859C69.7605 16.961 69.9908 17.7067 69.9908 18.542H71.3908ZM70.4598 15.5056C69.8247 14.5391 68.925 14 67.8008 14V15.4C68.3994 15.4 68.8823 15.6543 69.2899 16.2744L70.4598 15.5056ZM67.8008 14C66.7282 14 65.759 14.444 64.9076 15.2438L65.8661 16.2642C66.5107 15.6586 67.1508 15.4 67.8008 15.4V14ZM64.8998 15.2512C64.1032 16.0229 63.484 16.9417 63.0411 17.9997L64.3326 18.5403C64.7057 17.6489 65.2198 16.8904 65.8739 16.2568L64.8998 15.2512ZM63.0359 18.0126C62.6329 19.0318 62.3049 20.1715 62.0489 21.4283L63.4208 21.7077C63.6634 20.5165 63.9701 19.4575 64.3378 18.5274L63.0359 18.0126ZM62.0469 21.4385C61.6778 23.3997 61.4908 25.2229 61.4908 26.906H62.8908C62.8908 25.3251 63.0666 23.5897 63.4228 21.6975L62.0469 21.4385ZM89.8416 6.472L90.2333 7.05228L90.243 7.04546L89.8416 6.472ZM83.9936 6.71L83.5961 7.28632L83.6053 7.29243L83.9936 6.71ZM84.4696 2.426L84.1074 1.82699L84.1074 1.82699L84.4696 2.426ZM90.1816 2.222L89.7841 2.79832L89.7933 2.80443L90.1816 2.222ZM81.5116 29.796L80.9921 30.2652L80.9921 30.2652L81.5116 29.796ZM82.7356 15.006L83.4176 15.1636L83.4857 14.8691L83.318 14.6177L82.7356 15.006ZM80.8316 12.15L80.4715 11.5498L79.842 11.9275L80.2492 12.5383L80.8316 12.15ZM89.5016 10.212L88.9927 10.6926L88.9996 10.6999L89.0066 10.707L89.5016 10.212ZM88.6176 29.184L89.0786 29.7108L89.682 29.1828L89.0774 28.6561L88.6176 29.184ZM90.5016 4.228C90.5016 4.79699 90.219 5.35333 89.4402 5.89854L90.243 7.04546C91.2775 6.32133 91.9016 5.38168 91.9016 4.228H90.5016ZM89.45 5.8918C88.6657 6.42117 87.7724 6.69 86.7476 6.69V8.09C88.0348 8.09 89.2042 7.74683 90.2332 7.05219L89.45 5.8918ZM86.7476 6.69C85.6748 6.69 84.9084 6.47857 84.3819 6.12756L83.6053 7.29243C84.4388 7.84809 85.5084 8.09 86.7476 8.09V6.69ZM84.391 6.13375C83.915 5.80545 83.7076 5.40479 83.7076 4.874H82.3076C82.3076 5.88454 82.7576 6.70788 83.5962 7.28625L84.391 6.13375ZM83.7076 4.874C83.7076 4.10245 84.0435 3.50166 84.8318 3.02501L84.1074 1.82699C82.9464 2.529 82.3076 3.56022 82.3076 4.874H83.7076ZM84.8318 3.02501C85.7026 2.49851 86.6094 2.242 87.5636 2.242V0.842C86.3418 0.842 85.186 1.17483 84.1074 1.82699L84.8318 3.02501ZM87.5636 2.242C88.5599 2.242 89.2792 2.44997 89.7842 2.79825L90.579 1.64575C89.7694 1.08737 88.7433 0.842 87.5636 0.842V2.242ZM89.7933 2.80443C90.2605 3.11586 90.5016 3.55539 90.5016 4.228H91.9016C91.9016 3.13261 91.4628 2.23481 90.5699 1.63956L89.7933 2.80443ZM84.5716 30.15C83.2676 30.15 82.4797 29.8235 82.0311 29.3268L80.9921 30.2652C81.8128 31.1738 83.065 31.55 84.5716 31.55V30.15ZM82.0311 29.3268C81.5594 28.8046 81.2596 27.9402 81.2596 26.6H79.8596C79.8596 28.1158 80.1944 29.382 80.9921 30.2652L82.0311 29.3268ZM81.2596 26.6C81.2596 25.9489 81.4278 24.6809 81.7916 22.7426C82.1517 20.8239 82.6933 18.2986 83.4176 15.1636L82.0536 14.8484C81.3272 17.9921 80.7808 20.5385 80.4156 22.4844C80.0541 24.4107 79.8596 25.8004 79.8596 26.6H81.2596ZM83.318 14.6177L81.414 11.7617L80.2492 12.5383L82.1532 15.3943L83.318 14.6177ZM81.1918 12.7502C84.007 11.0611 86.0997 10.3 87.5296 10.3V8.9C85.6956 8.9 83.3229 9.8389 80.4715 11.5498L81.1918 12.7502ZM87.5296 10.3C88.3872 10.3 88.8044 10.4932 88.9927 10.6926L90.0105 9.73136C89.4282 9.11476 88.5307 8.9 87.5296 8.9V10.3ZM89.0066 10.707C89.1991 10.8994 89.3796 11.3071 89.3796 12.116H90.7796C90.7796 11.1569 90.5748 10.2952 89.9966 9.71702L89.0066 10.707ZM89.3796 12.116C89.3796 12.1062 89.3794 12.1332 89.3666 12.2246C89.3553 12.3061 89.3374 12.4163 89.312 12.5575C89.2614 12.8395 89.1843 13.227 89.0801 13.723C88.8718 14.7139 88.5584 16.1199 88.1394 17.9432L89.5038 18.2568C89.9235 16.4307 90.2391 15.0148 90.4501 14.011C90.5555 13.5096 90.6358 13.1067 90.69 12.805C90.7393 12.5304 90.7796 12.2759 90.7796 12.116H89.3796ZM88.1394 17.9432C87.3007 21.5926 86.8636 24.2685 86.8636 25.92H88.2636C88.2636 24.4435 88.6652 21.906 89.5038 18.2568L88.1394 17.9432ZM86.8636 25.92C86.8636 27.5541 87.2252 28.8995 88.1579 29.7119L89.0774 28.6561C88.6047 28.2445 88.2636 27.4139 88.2636 25.92H86.8636ZM88.1567 28.6572C86.9906 29.6775 85.8002 30.15 84.5716 30.15V31.55C86.199 31.55 87.706 30.9118 89.0786 29.7108L88.1567 28.6572ZM95.5773 28.436L95.0926 28.9411L95.096 28.9443L95.5773 28.436ZM96.8013 13.034L97.2721 13.552L97.2724 13.5517L96.8013 13.034ZM111.047 11.028L110.586 11.5548L110.593 11.5603L111.047 11.028ZM109.585 20.004L109.978 20.5834L109.979 20.5825L109.585 20.004ZM100.099 22.112L100.096 21.412L99.3659 21.4159L99.4 22.1448L100.099 22.112ZM101.085 25.546L100.512 25.9485L100.518 25.9558L101.085 25.546ZM105.573 25.886L105.106 25.3647L105.097 25.373L105.573 25.886ZM106.559 22.996V22.296H105.859V22.996H106.559ZM109.075 29.116L109.48 29.6872L109.485 29.6835L109.075 29.116ZM102.479 15.312L101.944 14.8608L101.939 14.867L102.479 15.312ZM100.405 19.392L99.7304 19.2062L99.4651 20.1694L100.461 20.0898L100.405 19.392ZM105.505 17.862L105.922 18.4247L105.923 18.4233L105.505 17.862ZM106.797 14.02L106.283 14.4948L106.292 14.5051L106.302 14.515L106.797 14.02ZM102.785 30.15C99.7989 30.15 97.5906 29.3781 96.0585 27.9277L95.096 28.9443C96.9639 30.7126 99.5609 31.55 102.785 31.55V30.15ZM96.0619 27.9309C94.5468 26.4773 93.7613 24.4971 93.7613 21.908H92.3613C92.3613 24.8042 93.253 27.1761 95.0926 28.9411L96.0619 27.9309ZM93.7613 21.908C93.7613 18.4375 94.9378 15.6741 97.2721 13.552L96.3304 12.516C93.6781 14.9272 92.3613 18.0798 92.3613 21.908H93.7613ZM97.2724 13.5517C99.6446 11.3932 102.621 10.3 106.253 10.3V8.9C102.315 8.9 98.9899 10.0961 96.3301 12.5163L97.2724 13.5517ZM106.253 10.3C108.268 10.3 109.673 10.7561 110.586 11.5548L111.508 10.5012C110.245 9.39595 108.455 8.9 106.253 8.9V10.3ZM110.593 11.5603C111.512 12.3454 111.979 13.3795 111.979 14.734H113.379C113.379 13.0058 112.759 11.5693 111.502 10.4957L110.593 11.5603ZM111.979 14.734C111.979 16.5654 111.103 18.123 109.191 19.4255L109.979 20.5825C112.193 19.0744 113.379 17.1186 113.379 14.734H111.979ZM109.193 19.4246C107.324 20.6907 104.331 21.3896 100.096 21.412L100.103 22.812C104.435 22.7891 107.766 22.0827 109.978 20.5834L109.193 19.4246ZM99.4 22.1448C99.4718 23.6754 99.8212 24.9647 100.513 25.9485L101.658 25.1435C101.171 24.45 100.863 23.4499 100.798 22.0792L99.4 22.1448ZM100.518 25.9558C101.218 26.925 102.153 27.47 103.295 27.47V26.07C102.67 26.07 102.131 25.799 101.653 25.1362L100.518 25.9558ZM103.295 27.47C104.352 27.47 105.282 27.1112 106.05 26.399L105.097 25.373C104.595 25.8394 104.007 26.07 103.295 26.07V27.47ZM106.041 26.4072C106.908 25.6293 107.259 24.4297 107.259 22.996H105.859C105.859 24.237 105.553 24.964 105.106 25.3648L106.041 26.4072ZM106.559 23.696C108.181 23.696 109.297 23.8911 109.983 24.2154C110.317 24.3732 110.52 24.5482 110.641 24.7191C110.757 24.8836 110.823 25.0819 110.823 25.342H112.223C112.223 24.8201 112.083 24.3341 111.785 23.9122C111.492 23.4966 111.075 23.1828 110.581 22.9496C109.613 22.4919 108.247 22.296 106.559 22.296V23.696ZM110.823 25.342C110.823 26.3578 110.211 27.4322 108.665 28.5485L109.485 29.6835C111.203 28.4425 112.223 27.0008 112.223 25.342H110.823ZM108.671 28.5448C107.186 29.5962 105.242 30.15 102.785 30.15V31.55C105.451 31.55 107.7 30.9478 109.48 29.6872L108.671 28.5448ZM105.675 12.878C104.253 12.878 103.008 13.599 101.944 14.8608L103.014 15.7632C103.9 14.713 104.785 14.278 105.675 14.278V12.878ZM101.939 14.867C100.919 16.1051 100.185 17.5553 99.7304 19.2062L101.08 19.5778C101.487 18.1007 102.135 16.8309 103.02 15.757L101.939 14.867ZM100.461 20.0898C102.786 19.9038 104.637 19.3753 105.922 18.4247L105.089 17.2993C104.107 18.026 102.558 18.5175 100.349 18.6942L100.461 20.0898ZM105.923 18.4233C107.163 17.5001 107.939 16.4109 107.939 15.142H106.539C106.539 15.7771 106.16 16.5012 105.087 17.3007L105.923 18.4233ZM107.939 15.142C107.939 14.521 107.73 13.9632 107.292 13.525L106.302 14.515C106.453 14.6662 106.539 14.8563 106.539 15.142H107.939ZM107.312 13.5452C106.882 13.0802 106.307 12.878 105.675 12.878V14.278C105.996 14.278 106.168 14.3705 106.283 14.4948L107.312 13.5452Z" fill="white"/>
</g>
<defs>
<filter id="filter0_d" x="0.369629" y="0.842041" width="117.01" height="43.876" filterUnits="userSpaceOnUse" color-interpolation-filters="sRGB">
<feFlood flood-opacity="0" result="BackgroundImageFix"/>
<feColorMatrix in="SourceAlpha" type="matrix" values="0 0 0 0 0 0 0 0 0 0 0 0 0 0 0 0 0 0 127 0"/>
<feOffset dy="4"/>
<feGaussianBlur stdDeviation="2"/>
<feColorMatrix type="matrix" values="0 0 0 0 0 0 0 0 0 0 0 0 0 0 0 0 0 0 0.25 0"/>
<feBlend mode="normal" in2="BackgroundImageFix" result="effect1_dropShadow"/>
<feBlend mode="normal" in="SourceGraphic" in2="effect1_dropShadow" result="shape"/>
</filter>
<linearGradient id="paint0_linear" x1="87" y1="16" x2="22" y2="56.5" gradientUnits="userSpaceOnUse">
<stop stop-color="#00D672"/>
<stop offset="1" stop-color="#04BC4E"/>
</linearGradient>
</defs>
</svg>
